<?xml version="1.0" encoding="utf-8"?>
<!-- Designed by Vexels.com - 2016 All Rights Reserved - https://vexels.com/terms-and-conditions/  -->

<svg version="1.1" id="Layer_1" xmlns="http://www.w3.org/2000/svg" xmlns:xlink="http://www.w3.org/1999/xlink" x="0px" y="0px"
	 width="1200px" height="1200px" viewBox="0 0 1200 1200" enable-background="new 0 0 1200 1200" xml:space="preserve">
<g>
	<path opacity="0.05" fill-rule="evenodd" clip-rule="evenodd" fill="#201D21" d="M286.263,923.517
		c-3.624,0.804-6.966,2.153-10.037,4.116c18.345,8.534,37.111,16.302,56.226,23.324c-1.579-2.521-3.076-5.067-4.125-7.688
		C318.337,928.127,304.495,921.13,286.263,923.517z"/>
	<path opacity="0.05" fill-rule="evenodd" clip-rule="evenodd" fill="#201D21" d="M526.647,993.254
		c-2.525-6.155-7.045-10.837-13.379-14.149c3.333-0.473,6.687-1.022,9.792-0.49c-0.023-3.082-0.06-6.168-0.09-9.254
		c-5.948-2.76-11.892-5.544-17.842-8.325c-2.977,4.233-9.451,10.389-8.356,12.374c0.584,1.039,1.214,1.876,1.878,2.613
		c-6.926-0.415-13.921,0.167-20.891,0.406c-9.878,1.842-19.725,3.748-29.282,6.524C474.099,987.772,500.188,991.206,526.647,993.254
		z"/>
	<path opacity="0.05" fill-rule="evenodd" clip-rule="evenodd" fill="#201D21" d="M871.938,927.943
		c-20.267,6.62-42.418,7.922-59.98,21.85c-3.224,3.471-5.749,7.102-5.766,11.331c28.06-8.928,55.37-19.492,81.817-31.586
		C883.013,927.847,877.679,927.223,871.938,927.943z"/>
	<path opacity="0.05" fill-rule="evenodd" clip-rule="evenodd" fill="#201D21" d="M173.527,869.278
		c-4.594-5.904-9.618-11.009-16.919-11.817C162.181,861.485,167.834,865.409,173.527,869.278z"/>
	<path opacity="0.05" fill-rule="evenodd" clip-rule="evenodd" fill="#201D21" d="M617.713,894.854
		c-5.297,6.218-10.602,12.445-15.899,18.655c6.725,8.098,15.615,8.107,24.898,6.666c2.977-2.801,5.94-5.603,8.913-8.421
		C644.021,890.88,635.043,888.452,617.713,894.854z"/>
	<path opacity="0.05" fill-rule="evenodd" clip-rule="evenodd" fill="#201D21" d="M284.406,588.242
		c5.676,1.851,8.643-2.751,6.976-7.433c-1.225-3.475-5.268-7.194-8.825-8.291c-4.583-1.411-8.53,1.147-7.437,8.425
		C277.711,583.075,280.623,587.007,284.406,588.242z"/>
	<path opacity="0.05" fill-rule="evenodd" clip-rule="evenodd" fill="#201D21" d="M553.734,871.501
		c3.182,2.835,6.358,5.661,9.541,8.488c5.934-0.586,11.871-1.189,17.807-1.788c5.391-0.469,8.32-3.513,9.124-8.773
		c-0.354-5.888-0.712-11.758-1.068-17.625C577.337,858.365,565.53,864.932,553.734,871.501z"/>
	<path opacity="0.05" fill-rule="evenodd" clip-rule="evenodd" fill="#201D21" d="M378.302,600.871
		c-2.72-6.863-8.677-2.571-12.621,1.553c3.243,5.825,6.476,11.657,9.717,17.486C376.577,613.479,380.341,606.034,378.302,600.871z"
		/>
	<path opacity="0.05" fill-rule="evenodd" clip-rule="evenodd" fill="#201D21" d="M892.293,627.356
		c-8.203,2.881-14.405,6.75-8.321,16.75c0.214,2.839,0.369,5.703,0.423,8.567c5.711,3.35,11.431,6.708,17.155,10.075
		c10.862-6.918,17.344-16.536,18.366-29.567C911.852,625.832,902.167,626.142,892.293,627.356z"/>
	<path opacity="0.05" fill-rule="evenodd" clip-rule="evenodd" fill="#201D21" d="M709.17,731.124
		c-2.27,5.188-4.539,10.364-6.809,15.548c-0.846-1.173-1.8-2.303-3.019-3.245c-11.458-5.418-23.066-9.698-35.957-5.439
		c-7.719,4.564-12.005,11.126-11.819,20.284c0.871,4.25,3.35,7.206,7.204,9.078c2.762,3.095,5.53,6.21,8.293,9.33
		c2.776,0.113,5.55,0.08,8.335-0.088c15.215-0.821,30.128,0.436,44.193,6.972c-3.342-11.678-6.671-23.378-10.02-35.086
		C709.447,742.697,709.304,736.919,709.17,731.124z"/>
	<path opacity="0.05" fill-rule="evenodd" clip-rule="evenodd" fill="#201D21" d="M664.64,732.795
		c6.652-8.961,21.498-11.344,20.949-26.075c-1.721-6.114-5.682-10.196-11.515-12.533c-4.127-0.561-7.674,0.654-10.734,3.405
		c-0.423-1.575-0.888-3.166-1.418-4.795c-7.257-5.431-15.458-6.574-24.167-5.133c-6.962,1.951-13.186,5.339-19.095,9.279
		c-1.334-2.198-3.249-4.146-5.54-5.934c-10.192-5.067-20.24-6.465-30,1.014c0.155,2.818,0.235,5.636,0.278,8.442
		c9.066,5.632,18.119,11.256,27.197,16.892l-0.013,0.012c3.164,2.818,6.313,5.632,9.464,8.438c8.737-0.281,17.48-0.578,26.226-0.875
		c6.12,2.583,12.24,5.138,18.353,7.713C664.625,732.648,664.64,732.795,664.64,732.795z"/>
	<path opacity="0.05" fill-rule="evenodd" clip-rule="evenodd" fill="#201D21" d="M496.629,312.289
		c-0.22-5.9-0.454-11.808-0.668-17.733c-10.839-3.698-25.937-10.519-26.353,7.625C469.2,320.249,486.985,309.806,496.629,312.289z"
		/>
	<path opacity="0.05" fill-rule="evenodd" clip-rule="evenodd" fill="#201D21" d="M612.195,76.062c0.004-0.017,0-0.042,0-0.05
		c-0.019-0.021-0.042-0.033-0.069-0.05L612.195,76.062z"/>
	<polygon fill-rule="evenodd" clip-rule="evenodd" fill="#371000" points="713.127,521.779 482.616,637.816 151.654,795.844 
		147.649,876.421 145.174,926.322 140.385,1022.875 131.871,1150 1068.129,1147.735 1045.019,864.831 870.355,653.276 
		840.374,675.854 	"/>
	<polygon fill-rule="evenodd" clip-rule="evenodd" fill="#371000" points="502.668,543.541 461.836,527.005 405.627,291.754 
		371.516,531.08 343.704,549.86 350.615,723.808 509.579,717.494 491.108,564.328 	"/>
	<polygon fill-rule="evenodd" clip-rule="evenodd" fill="#371000" points="287.838,687.935 259.653,676.516 222.381,513.974 
		197.265,679.33 178.058,692.29 182.831,812.442 292.616,808.075 279.855,702.289 	"/>
	<polygon fill-rule="evenodd" clip-rule="evenodd" fill="#371000" points="1020.695,714.278 993.355,700.949 957.08,537.231 
		930.917,699.484 910.868,711.095 907.375,831.286 1017.202,834.468 1011.746,728.062 	"/>
	<polygon fill-rule="evenodd" clip-rule="evenodd" fill="#371000" points="710.259,378.265 637.668,69.999 637.407,63.253 
		636.873,66.653 636.098,63.307 636.36,70.053 588.465,383.11 549.499,408.373 558.772,641.916 658.934,637.933 660.241,637.883 
		760.399,633.897 751.119,400.358 	"/>
	<polygon fill-rule="evenodd" clip-rule="evenodd" fill="#371000" points="670.378,72.009 648.036,72.896 647.132,50 
		625.343,50.862 626.262,73.772 603.91,74.651 604.921,99.993 627.261,99.105 629.325,151.125 651.108,150.263 649.046,98.242 
		671.4,97.355 	"/>
	<polygon fill-rule="evenodd" clip-rule="evenodd" fill="#371000" points="432.734,300.493 416.095,301.155 415.298,281.097 
		396.398,281.843 397.196,301.9 381.727,302.52 382.489,321.656 397.958,321.033 399.635,363.43 418.543,362.676 416.853,320.291 
		433.498,319.621 	"/>
	<polygon fill-rule="evenodd" clip-rule="evenodd" fill="#371000" points="244.289,510.649 229.173,511.248 228.555,495.868 
		215.48,496.387 216.097,511.768 198.973,512.45 199.493,525.536 216.611,524.853 218.484,571.982 231.57,571.463 229.694,524.33 
		244.804,523.731 	"/>
	<polygon fill-rule="evenodd" clip-rule="evenodd" fill="#371000" points="951.075,591.433 967.372,590.792 965.693,548.549 
		979.332,548.014 978.85,536 965.225,536.544 964.508,518.911 948.215,519.556 948.919,537.202 935.272,537.738 935.754,549.743 
		949.4,549.19 	"/>
	
		<radialGradient id="SVGID_1_" cx="633.7319" cy="235.6875" r="3.8922" gradientTransform="matrix(0.9737 -0.2278 0.2278 0.9737 -16.8364 221.852)" gradientUnits="userSpaceOnUse">
		<stop  offset="0" style="stop-color:#FBD7A3"/>
		<stop  offset="0.2103" style="stop-color:#FACA8B"/>
		<stop  offset="0.7445" style="stop-color:#F7A94F"/>
		<stop  offset="1" style="stop-color:#F59B36"/>
	</radialGradient>
	<path fill-rule="evenodd" clip-rule="evenodd" fill="url(#SVGID_1_)" d="M643.257,308.437l-1.022-25.615
		c-12.206,2.76-21.174,13.651-21.218,26.502L643.257,308.437z"/>
	
		<radialGradient id="SVGID_2_" cx="627.1896" cy="231.3281" r="21.6473" gradientTransform="matrix(0.9737 -0.2278 0.2278 0.9737 -16.8364 221.852)" gradientUnits="userSpaceOnUse">
		<stop  offset="0" style="stop-color:#FBD7A3"/>
		<stop  offset="0.2103" style="stop-color:#FACA8B"/>
		<stop  offset="0.7445" style="stop-color:#F7A94F"/>
		<stop  offset="1" style="stop-color:#F59B36"/>
	</radialGradient>
	<path fill-rule="evenodd" clip-rule="evenodd" fill="url(#SVGID_2_)" d="M621.367,313.759
		c1.882,11.808,11.299,20.962,22.999,22.649l-0.928-23.533L621.367,313.759z"/>
	
		<radialGradient id="SVGID_3_" cx="627.7658" cy="241.9755" r="18.3034" gradientTransform="matrix(0.9737 -0.2278 0.2278 0.9737 -16.8364 221.852)" gradientUnits="userSpaceOnUse">
		<stop  offset="0" style="stop-color:#FBD7A3"/>
		<stop  offset="0.2103" style="stop-color:#FACA8B"/>
		<stop  offset="0.7445" style="stop-color:#F7A94F"/>
		<stop  offset="1" style="stop-color:#F59B36"/>
	</radialGradient>
	<path fill-rule="evenodd" clip-rule="evenodd" fill="url(#SVGID_3_)" d="M675.443,307.155
		c-1.135-13.768-12.399-24.463-26.11-24.978l1.038,25.974L675.443,307.155z"/>
	
		<radialGradient id="SVGID_4_" cx="622.3309" cy="237.0827" r="27.7709" gradientTransform="matrix(0.9737 -0.2278 0.2278 0.9737 -16.8364 221.852)" gradientUnits="userSpaceOnUse">
		<stop  offset="0" style="stop-color:#FBD7A3"/>
		<stop  offset="0.2103" style="stop-color:#FACA8B"/>
		<stop  offset="0.7445" style="stop-color:#F7A94F"/>
		<stop  offset="1" style="stop-color:#F59B36"/>
	</radialGradient>
	<path fill-rule="evenodd" clip-rule="evenodd" fill="url(#SVGID_4_)" d="M650.551,312.599l0.948,23.902
		c12.939-1.541,22.941-12.022,23.965-24.89L650.551,312.599z"/>
	
		<radialGradient id="SVGID_5_" cx="376.9428" cy="339.6977" r="7.7274" gradientTransform="matrix(0.9737 -0.2278 0.2278 0.9737 -16.8364 221.852)" gradientUnits="userSpaceOnUse">
		<stop  offset="0" style="stop-color:#FBD7A3"/>
		<stop  offset="0.2103" style="stop-color:#FACA8B"/>
		<stop  offset="0.7445" style="stop-color:#F7A94F"/>
		<stop  offset="1" style="stop-color:#F59B36"/>
	</radialGradient>
	<path fill-rule="evenodd" clip-rule="evenodd" fill="url(#SVGID_5_)" d="M424.102,480.166c5.4-1.763,9.227-6.901,8.995-12.868
		c-0.237-5.959-4.458-10.77-9.985-12.11L424.102,480.166z"/>
	
		<radialGradient id="SVGID_6_" cx="362.6343" cy="338.4272" r="8.7406" gradientTransform="matrix(0.9737 -0.2278 0.2278 0.9737 -16.8364 221.852)" gradientUnits="userSpaceOnUse">
		<stop  offset="0" style="stop-color:#FBD7A3"/>
		<stop  offset="0.2103" style="stop-color:#FACA8B"/>
		<stop  offset="0.7445" style="stop-color:#F7A94F"/>
		<stop  offset="1" style="stop-color:#F59B36"/>
	</radialGradient>
	<path fill-rule="evenodd" clip-rule="evenodd" fill="url(#SVGID_6_)" d="M417.755,455.024c-6.327,1.135-11.008,6.717-10.749,13.316
		c0.266,6.591,5.381,11.796,11.773,12.416L417.755,455.024z"/>
	
		<radialGradient id="SVGID_7_" cx="145.877" cy="464.2277" r="10.933" gradientTransform="matrix(0.9737 -0.2278 0.2278 0.9737 -16.8364 221.852)" gradientUnits="userSpaceOnUse">
		<stop  offset="0" style="stop-color:#F9CA8A"/>
		<stop  offset="0.6701" style="stop-color:#F6A94F"/>
		<stop  offset="1" style="stop-color:#F59B36"/>
	</radialGradient>
	<path fill-rule="evenodd" clip-rule="evenodd" fill="url(#SVGID_7_)" d="M224.137,630.907c-3.84,2.387-6.346,6.658-6.151,11.49
		c0.186,4.841,3.023,8.886,7.037,10.959L224.137,630.907z"/>
	
		<radialGradient id="SVGID_8_" cx="142.0651" cy="466.0751" r="13.4953" gradientTransform="matrix(0.9737 -0.2278 0.2278 0.9737 -16.8364 221.852)" gradientUnits="userSpaceOnUse">
		<stop  offset="0" style="stop-color:#FBD7A3"/>
		<stop  offset="0.2103" style="stop-color:#FACA8B"/>
		<stop  offset="0.7445" style="stop-color:#F7A94F"/>
		<stop  offset="1" style="stop-color:#F59B36"/>
	</radialGradient>
	<path fill-rule="evenodd" clip-rule="evenodd" fill="url(#SVGID_8_)" d="M233.854,629.19l1.001,25.103
		c5.521-1.704,9.463-6.888,9.221-12.935C243.833,635.312,239.501,630.451,233.854,629.19z"/>
	
		<radialGradient id="SVGID_9_" cx="854.3602" cy="663.6741" r="13.2947" gradientTransform="matrix(0.9737 -0.2278 0.2278 0.9737 -16.8364 221.852)" gradientUnits="userSpaceOnUse">
		<stop  offset="0" style="stop-color:#FBD7A3"/>
		<stop  offset="0.2103" style="stop-color:#FACA8B"/>
		<stop  offset="0.7445" style="stop-color:#F7A94F"/>
		<stop  offset="1" style="stop-color:#F59B36"/>
	</radialGradient>
	<path fill-rule="evenodd" clip-rule="evenodd" fill="url(#SVGID_9_)" d="M979.281,672.927c0.289,7.211-5.326,13.283-12.52,13.567
		c-7.207,0.28-13.278-5.322-13.567-12.529c-0.28-7.206,5.318-13.282,12.529-13.563C972.925,660.118,979.001,665.729,979.281,672.927
		z"/>
	
		<radialGradient id="SVGID_10_" cx="564.0875" cy="427.1117" r="32.8662" gradientTransform="matrix(0.9737 -0.2278 0.2278 0.9737 -16.8364 221.852)" gradientUnits="userSpaceOnUse">
		<stop  offset="0" style="stop-color:#FBD7A3"/>
		<stop  offset="0.2103" style="stop-color:#FACA8B"/>
		<stop  offset="0.7445" style="stop-color:#F7A94F"/>
		<stop  offset="1" style="stop-color:#F59B36"/>
	</radialGradient>
	<path fill-rule="evenodd" clip-rule="evenodd" fill="url(#SVGID_10_)" d="M649.018,459.601
		c-24.727,7.801-42.347,45.454-40.576,89.958c0.013,0.402,0.044,0.791,0.063,1.185l44.062-1.746L649.018,459.601z"/>
	
		<radialGradient id="SVGID_11_" cx="618.548" cy="433.9335" r="30.9725" gradientTransform="matrix(0.9737 -0.2278 0.2278 0.9737 -16.8364 221.852)" gradientUnits="userSpaceOnUse">
		<stop  offset="0" style="stop-color:#FBD7A3"/>
		<stop  offset="0.2103" style="stop-color:#FACA8B"/>
		<stop  offset="0.7445" style="stop-color:#F7A94F"/>
		<stop  offset="1" style="stop-color:#F59B36"/>
	</radialGradient>
	<path fill-rule="evenodd" clip-rule="evenodd" fill="url(#SVGID_11_)" d="M663.287,458.487l3.578,89.937l46.434-1.847
		c-0.012-0.402-0.012-0.791-0.025-1.193C711.444,499.482,689.63,462.482,663.287,458.487z"/>
	
		<radialGradient id="SVGID_12_" cx="324.5193" cy="501.856" r="14.7403" gradientTransform="matrix(0.9737 -0.2278 0.2278 0.9737 -16.8364 221.852)" gradientUnits="userSpaceOnUse">
		<stop  offset="0" style="stop-color:#FBD7A3"/>
		<stop  offset="0.2103" style="stop-color:#FACA8B"/>
		<stop  offset="0.7445" style="stop-color:#F7A94F"/>
		<stop  offset="1" style="stop-color:#F59B36"/>
	</radialGradient>
	<path fill-rule="evenodd" clip-rule="evenodd" fill="url(#SVGID_12_)" d="M422.13,614.325
		c-11.091,3.497-18.986,20.385-18.199,40.346c0.015,0.176,0.021,0.352,0.031,0.54l19.758-0.792L422.13,614.325z"/>
	
		<radialGradient id="SVGID_13_" cx="348.9406" cy="504.9186" r="13.8898" gradientTransform="matrix(0.9737 -0.2278 0.2278 0.9737 -16.8364 221.852)" gradientUnits="userSpaceOnUse">
		<stop  offset="0" style="stop-color:#FBD7A3"/>
		<stop  offset="0.2103" style="stop-color:#FACA8B"/>
		<stop  offset="0.7445" style="stop-color:#F7A94F"/>
		<stop  offset="1" style="stop-color:#F59B36"/>
	</radialGradient>
	<path fill-rule="evenodd" clip-rule="evenodd" fill="url(#SVGID_13_)" d="M428.528,613.831l1.604,40.333l20.826-0.829
		c-0.009-0.18-0.015-0.348-0.015-0.536C450.124,632.218,440.34,615.619,428.528,613.831z"/>
	
		<radialGradient id="SVGID_14_" cx="117.3339" cy="550.2053" r="14.739" gradientTransform="matrix(0.9737 -0.2278 0.2278 0.9737 -16.8364 221.852)" gradientUnits="userSpaceOnUse">
		<stop  offset="0" style="stop-color:#FBD7A3"/>
		<stop  offset="0.2103" style="stop-color:#FACA8B"/>
		<stop  offset="0.7445" style="stop-color:#F7A94F"/>
		<stop  offset="1" style="stop-color:#F59B36"/>
	</radialGradient>
	<path fill-rule="evenodd" clip-rule="evenodd" fill="url(#SVGID_14_)" d="M231.403,708.6c-11.084,3.496-18.99,20.384-18.188,40.341
		c0,0.18,0.015,0.352,0.025,0.523l19.759-0.77L231.403,708.6z"/>
	
		<radialGradient id="SVGID_15_" cx="141.7572" cy="553.263" r="13.8914" gradientTransform="matrix(0.9737 -0.2278 0.2278 0.9737 -16.8364 221.852)" gradientUnits="userSpaceOnUse">
		<stop  offset="0" style="stop-color:#FBD7A3"/>
		<stop  offset="0.2103" style="stop-color:#FACA8B"/>
		<stop  offset="0.7445" style="stop-color:#F7A94F"/>
		<stop  offset="1" style="stop-color:#F59B36"/>
	</radialGradient>
	<path fill-rule="evenodd" clip-rule="evenodd" fill="url(#SVGID_15_)" d="M237.805,708.097l1.606,40.341l20.816-0.829
		c0-0.184,0-0.352-0.009-0.553C259.402,726.475,249.617,709.893,237.805,708.097z"/>
	
		<radialGradient id="SVGID_16_" cx="824.4033" cy="749.09" r="14.7377" gradientTransform="matrix(0.9737 -0.2278 0.2278 0.9737 -16.8364 221.852)" gradientUnits="userSpaceOnUse">
		<stop  offset="0" style="stop-color:#FBD7A3"/>
		<stop  offset="0.2103" style="stop-color:#FACA8B"/>
		<stop  offset="0.7445" style="stop-color:#F7A94F"/>
		<stop  offset="1" style="stop-color:#F59B36"/>
	</radialGradient>
	<path fill-rule="evenodd" clip-rule="evenodd" fill="url(#SVGID_16_)" d="M965.183,741.186
		c-11.08,3.492-18.982,20.384-18.181,40.349c0,0.172,0.012,0.348,0.021,0.524l19.752-0.783L965.183,741.186z"/>
	
		<radialGradient id="SVGID_17_" cx="848.8297" cy="752.1492" r="13.8908" gradientTransform="matrix(0.9737 -0.2278 0.2278 0.9737 -16.8364 221.852)" gradientUnits="userSpaceOnUse">
		<stop  offset="0" style="stop-color:#FBD7A3"/>
		<stop  offset="0.2103" style="stop-color:#FACA8B"/>
		<stop  offset="0.7445" style="stop-color:#F7A94F"/>
		<stop  offset="1" style="stop-color:#F59B36"/>
	</radialGradient>
	<path fill-rule="evenodd" clip-rule="evenodd" fill="url(#SVGID_17_)" d="M971.585,740.683l1.608,40.337l20.819-0.829
		c0-0.18,0-0.348-0.008-0.536C993.188,759.075,983.402,742.48,971.585,740.683z"/>
	
		<radialGradient id="SVGID_18_" cx="115.8152" cy="733.5128" r="28.2399" gradientTransform="matrix(0.9737 -0.2278 0.2278 0.9737 -16.8364 221.852)" gradientUnits="userSpaceOnUse">
		<stop  offset="0" style="stop-color:#F9BB77"/>
		<stop  offset="0.5935" style="stop-color:#F6A74E"/>
		<stop  offset="1" style="stop-color:#F59B36"/>
	</radialGradient>
	<path fill-rule="evenodd" clip-rule="evenodd" fill="url(#SVGID_18_)" d="M232.361,885.253l-2.452-61.601l-1.978,0.08
		c-19.702,0.783-35.025,17.382-34.246,37.075l1.032,25.949L232.361,885.253z"/>
	
		<radialGradient id="SVGID_19_" cx="98.9831" cy="780.1706" r="13.7395" gradientTransform="matrix(0.9737 -0.2278 0.2278 0.9737 -16.8364 221.852)" gradientUnits="userSpaceOnUse">
		<stop  offset="0" style="stop-color:#FBD7A3"/>
		<stop  offset="0.6383" style="stop-color:#F9BC72"/>
		<stop  offset="1" style="stop-color:#F8AE5A"/>
	</radialGradient>
	<polygon fill-rule="evenodd" clip-rule="evenodd" fill="url(#SVGID_19_)" points="195.667,910.469 197.548,957.891 235.19,956.396 
		233.303,908.983 	"/>
	
		<radialGradient id="SVGID_20_" cx="99.1419" cy="747.3658" r="51.1891" gradientTransform="matrix(0.9737 -0.2278 0.2278 0.9737 -16.8364 221.852)" gradientUnits="userSpaceOnUse">
		<stop  offset="0" style="stop-color:#F9BB77"/>
		<stop  offset="0.5935" style="stop-color:#F6A74E"/>
		<stop  offset="1" style="stop-color:#F59B36"/>
	</radialGradient>
	<path fill-rule="evenodd" clip-rule="evenodd" fill="url(#SVGID_20_)" d="M289.588,882.983l-1.036-25.949
		c-0.785-19.685-17.38-35.019-37.075-34.236l-1.756,0.071l2.454,61.605L289.588,882.983z"/>
	
		<radialGradient id="SVGID_21_" cx="85.6517" cy="790.9866" r="56.443" gradientTransform="matrix(0.9737 -0.2278 0.2278 0.9737 -16.8364 221.852)" gradientUnits="userSpaceOnUse">
		<stop  offset="0" style="stop-color:#FBD7A3"/>
		<stop  offset="0.6383" style="stop-color:#F9BC72"/>
		<stop  offset="1" style="stop-color:#F8AE5A"/>
	</radialGradient>
	<polygon fill-rule="evenodd" clip-rule="evenodd" fill="url(#SVGID_21_)" points="253.114,908.187 255.003,955.605 
		292.415,954.122 290.528,906.696 	"/>
	
		<radialGradient id="SVGID_22_" cx="339.2741" cy="766.1066" r="26.1828" gradientTransform="matrix(0.9737 -0.2278 0.2278 0.9737 -16.8364 221.852)" gradientUnits="userSpaceOnUse">
		<stop  offset="0" style="stop-color:#F8B76A"/>
		<stop  offset="0.5028" style="stop-color:#F7A84E"/>
		<stop  offset="1" style="stop-color:#F59B36"/>
	</radialGradient>
	<path fill-rule="evenodd" clip-rule="evenodd" fill="url(#SVGID_22_)" d="M459.805,869.098l-2.165-54.499l-1.987,0.075
		c-19.689,0.787-35.023,17.386-34.236,37.083l0.743,18.835L459.805,869.098z"/>
	
		<radialGradient id="SVGID_23_" cx="322.7935" cy="823.2422" r="13.7416" gradientTransform="matrix(0.9737 -0.2278 0.2278 0.9737 -16.8364 221.852)" gradientUnits="userSpaceOnUse">
		<stop  offset="0" style="stop-color:#FBD7A3"/>
		<stop  offset="0.6383" style="stop-color:#F9BC72"/>
		<stop  offset="1" style="stop-color:#F8AE5A"/>
	</radialGradient>
	<polygon fill-rule="evenodd" clip-rule="evenodd" fill="url(#SVGID_23_)" points="423.39,901.412 425.276,948.842 462.917,947.351 
		461.032,899.913 	"/>
	
		<radialGradient id="SVGID_24_" cx="324.6719" cy="779.9537" r="49.4533" gradientTransform="matrix(0.9737 -0.2278 0.2278 0.9737 -16.8364 221.852)" gradientUnits="userSpaceOnUse">
		<stop  offset="0" style="stop-color:#F8B76A"/>
		<stop  offset="0.5028" style="stop-color:#F7A84E"/>
		<stop  offset="1" style="stop-color:#F59B36"/>
	</radialGradient>
	<path fill-rule="evenodd" clip-rule="evenodd" fill="url(#SVGID_24_)" d="M517.03,866.824l-0.744-18.839
		c-0.783-19.689-17.386-35.019-37.088-34.24l-1.75,0.067l2.174,54.49L517.03,866.824z"/>
	
		<radialGradient id="SVGID_25_" cx="309.4537" cy="834.05" r="56.4451" gradientTransform="matrix(0.9737 -0.2278 0.2278 0.9737 -16.8364 221.852)" gradientUnits="userSpaceOnUse">
		<stop  offset="0" style="stop-color:#FBD7A3"/>
		<stop  offset="0.6383" style="stop-color:#F9BC72"/>
		<stop  offset="1" style="stop-color:#F8AE5A"/>
	</radialGradient>
	<polygon fill-rule="evenodd" clip-rule="evenodd" fill="url(#SVGID_25_)" points="480.843,899.134 482.731,946.564 
		520.147,945.069 518.255,897.639 	"/>
	
		<radialGradient id="SVGID_26_" cx="562.1401" cy="725.2382" r="13.5882" gradientTransform="matrix(0.9737 -0.2278 0.2278 0.9737 -16.8364 221.852)" gradientUnits="userSpaceOnUse">
		<stop  offset="0" style="stop-color:#FBD7A3"/>
		<stop  offset="0.6551" style="stop-color:#F9BA6E"/>
		<stop  offset="1" style="stop-color:#F7AC56"/>
	</radialGradient>
	<polygon fill-rule="evenodd" clip-rule="evenodd" fill="url(#SVGID_26_)" points="633.182,748.212 635.215,799.173 
		672.845,797.678 670.822,746.713 	"/>
	
		<radialGradient id="SVGID_27_" cx="577.8428" cy="669.949" r="26.516" gradientTransform="matrix(0.9737 -0.2278 0.2278 0.9737 -16.8364 221.852)" gradientUnits="userSpaceOnUse">
		<stop  offset="0" style="stop-color:#F8B76C"/>
		<stop  offset="0.4863" style="stop-color:#F7A952"/>
		<stop  offset="1" style="stop-color:#F59C3A"/>
	</radialGradient>
	<path fill-rule="evenodd" clip-rule="evenodd" fill="url(#SVGID_27_)" d="M669.79,720.622l-2.215-55.688l-1.979,0.088
		c-19.697,0.771-35.029,17.382-34.246,37.071l0.796,20.028L669.79,720.622z"/>
	
		<radialGradient id="SVGID_28_" cx="562.8953" cy="683.7972" r="49.7214" gradientTransform="matrix(0.9737 -0.2278 0.2278 0.9737 -16.8364 221.852)" gradientUnits="userSpaceOnUse">
		<stop  offset="0" style="stop-color:#F8B76C"/>
		<stop  offset="0.5195" style="stop-color:#F6A74E"/>
		<stop  offset="1" style="stop-color:#F59B36"/>
	</radialGradient>
	<path fill-rule="evenodd" clip-rule="evenodd" fill="url(#SVGID_28_)" d="M727.008,718.348l-0.796-20.02
		c-0.779-19.706-17.386-35.028-37.077-34.245l-1.748,0.063l2.219,55.696L727.008,718.348z"/>
	
		<radialGradient id="SVGID_29_" cx="547.7951" cy="736.0565" r="56.2093" gradientTransform="matrix(0.9737 -0.2278 0.2278 0.9737 -16.8364 221.852)" gradientUnits="userSpaceOnUse">
		<stop  offset="0" style="stop-color:#FBD7A3"/>
		<stop  offset="0.6551" style="stop-color:#F9BA6E"/>
		<stop  offset="1" style="stop-color:#F7AC56"/>
	</radialGradient>
	<polygon fill-rule="evenodd" clip-rule="evenodd" fill="url(#SVGID_29_)" points="690.637,745.913 692.67,796.899 730.07,795.404 
		728.047,744.427 	"/>
	
		<radialGradient id="SVGID_30_" cx="813.7689" cy="941.1511" r="27.198" gradientTransform="matrix(0.9737 -0.2278 0.2278 0.9737 -16.8364 221.852)" gradientUnits="userSpaceOnUse">
		<stop  offset="0" style="stop-color:#F9BA71"/>
		<stop  offset="0.5195" style="stop-color:#F7A952"/>
		<stop  offset="1" style="stop-color:#F59C3A"/>
	</radialGradient>
	<path fill-rule="evenodd" clip-rule="evenodd" fill="url(#SVGID_30_)" d="M960.472,929.94l-2.303-58.054l-1.981,0.075
		c-19.693,0.779-35.023,17.386-34.24,37.083l0.888,22.39L960.472,929.94z"/>
	
		<radialGradient id="SVGID_31_" cx="797.3996" cy="993.1837" r="13.7656" gradientTransform="matrix(0.9737 -0.2278 0.2278 0.9737 -16.8364 221.852)" gradientUnits="userSpaceOnUse">
		<stop  offset="0" style="stop-color:#FBD7A3"/>
		<stop  offset="0.6469" style="stop-color:#F9BA70"/>
		<stop  offset="1" style="stop-color:#F7AC58"/>
	</radialGradient>
	<polygon fill-rule="evenodd" clip-rule="evenodd" fill="url(#SVGID_31_)" points="923.874,957.523 925.809,1006.117 
		963.44,1004.618 961.519,956.024 	"/>
	
		<radialGradient id="SVGID_32_" cx="798.1329" cy="954.9986" r="50.2973" gradientTransform="matrix(0.9737 -0.2278 0.2278 0.9737 -16.8364 221.852)" gradientUnits="userSpaceOnUse">
		<stop  offset="0" style="stop-color:#F9BA71"/>
		<stop  offset="0.5195" style="stop-color:#F7A952"/>
		<stop  offset="1" style="stop-color:#F59C3A"/>
	</radialGradient>
	<path fill-rule="evenodd" clip-rule="evenodd" fill="url(#SVGID_32_)" d="M1017.705,927.667l-0.883-22.394
		c-0.792-19.698-17.39-35.023-37.092-34.245l-1.742,0.071l2.307,58.054L1017.705,927.667z"/>
	
		<radialGradient id="SVGID_33_" cx="783.7331" cy="1004.0042" r="56.2842" gradientTransform="matrix(0.9737 -0.2278 0.2278 0.9737 -16.8364 221.852)" gradientUnits="userSpaceOnUse">
		<stop  offset="0" style="stop-color:#FBD7A3"/>
		<stop  offset="0.6469" style="stop-color:#F9BA70"/>
		<stop  offset="1" style="stop-color:#F7AC58"/>
	</radialGradient>
	<polygon fill-rule="evenodd" clip-rule="evenodd" fill="url(#SVGID_33_)" points="981.329,955.245 983.268,1003.831 
		1020.686,1002.344 1018.739,953.754 	"/>
	
		<linearGradient id="SVGID_34_" gradientUnits="userSpaceOnUse" x1="530.427" y1="761.3398" x2="501.7821" y2="942.1964" gradientTransform="matrix(0.9737 -0.2278 0.2278 0.9737 -16.8364 221.852)">
		<stop  offset="0" style="stop-color:#F59B36"/>
		<stop  offset="0.2555" style="stop-color:#F7A94F"/>
		<stop  offset="0.7897" style="stop-color:#FACA8B"/>
		<stop  offset="1" style="stop-color:#FBD7A3"/>
	</linearGradient>
	<path fill-rule="evenodd" clip-rule="evenodd" fill="url(#SVGID_34_)" d="M696.911,873.892l-41.201,25.74l18.42,126.359
		c9.336-2.613,18.906-4.418,28.625-5.36L696.911,873.892z"/>
	
		<linearGradient id="SVGID_35_" gradientUnits="userSpaceOnUse" x1="589.3574" y1="785.2608" x2="561.8312" y2="959.0537" gradientTransform="matrix(0.9737 -0.2278 0.2278 0.9737 -16.8364 221.852)">
		<stop  offset="0" style="stop-color:#F59B36"/>
		<stop  offset="0.2555" style="stop-color:#F7A94F"/>
		<stop  offset="0.7897" style="stop-color:#FACA8B"/>
		<stop  offset="1" style="stop-color:#FBD7A3"/>
	</linearGradient>
	<path fill-rule="evenodd" clip-rule="evenodd" fill="url(#SVGID_35_)" d="M716.356,870.111l5.955,149.757
		c12.684,0.205,25.254,1.876,37.456,4.954l5.088-129.52L716.356,870.111z"/>
	<path fill-rule="evenodd" clip-rule="evenodd" fill="#FCDBB6" d="M137.563,1010.502l0.216-0.277
		c-0.873,2.073-2.286,4.933-5.1,4.832c-0.884-0.888,0.102-1.784,0.722-2.58c1.007-1.633,3.296-1.369,4.196-2.872
		C137.938,1009.873,137.063,1010.187,137.563,1010.502z"/>
</g>
</svg>
